<?xml version="1.0" encoding="UTF-8"?>
<svg id="Camada_1" xmlns="http://www.w3.org/2000/svg" version="1.1" viewBox="0 0 500 72.22">
  <!-- Generator: Adobe Illustrator 29.5.1, SVG Export Plug-In . SVG Version: 2.1.0 Build 141)  -->
  <defs>
    <style>
      .st0 {
        fill: #fff;
      }

      .st1 {
        fill: #f7ea3a;
      }

      .st2 {
        fill: #c4007a;
      }

      .st3 {
        fill: #009de0;
      }
    </style>
  </defs>
  <path class="st3" d="M.5,11.14C.5,7.09,3.68,3.91,7.74,3.91s7.14,3.18,7.14,7.24-3.18,7.14-7.14,7.14S.5,15.1.5,11.14Z"/>
  <rect class="st0" x="1.27" y="24.75" width="12.83" height="46.5"/>
  <path class="st0" d="M68.03,3.71v67.54h-12.83v-3.96c-3.28,2.89-7.43,4.73-12.45,4.73-13.41,0-22.09-10.61-22.09-24.02s8.68-23.93,22.09-23.93c5.02,0,9.17,1.83,12.45,4.73V3.71h12.83ZM55.2,48c0-6.95-4.05-12.25-11-12.25s-11,5.31-11,12.25,4.05,12.25,11,12.25,11-5.31,11-12.25Z"/>
  <path class="st0" d="M87.04,52.63c1.45,4.53,5.02,7.62,10.32,7.62,3.76,0,6.75-1.54,8.59-4.15l10.61,5.21c-3.86,6.46-10.71,10.71-19.2,10.71-13.41,0-23.54-10.61-23.54-24.02s9.65-23.93,23.06-23.93,21.51,10.52,21.51,23.93c0,1.64-.1,3.18-.39,4.63h-30.97ZM86.95,43.66h19.3c-1.06-4.63-3.96-7.91-9.36-7.91s-8.78,3.28-9.94,7.91Z"/>
  <path class="st0" d="M165.48,45.97v25.28h-12.83v-25.76c0-6.75-2.8-9.45-7.43-9.45s-7.72,3.09-7.72,9.94v25.28h-12.83V24.75h12.83v4.05c2.8-2.89,6.46-4.73,10.81-4.73,10.61,0,17.17,7.62,17.17,21.9Z"/>
  <path class="st0" d="M203.3,67.39c-2.41,2.32-6.75,4.34-12.25,4.34-9.84,0-15.34-5.11-15.34-14.76v-19.87h-6.37v-12.35h6.37v-10.42l12.83-2.89v13.31h10.81v12.35h-10.81v15.73c0,4.15,1.06,6.66,5.11,6.66,1.74,0,4.15-.77,5.4-1.93l4.25,9.84Z"/>
  <path class="st0" d="M269.39,31.31v30.49c-4.92,6.66-16.98,11.48-29.14,10.23-19.3-2.03-31.65-15.05-31.65-34.44S221.15,4.2,240.74,3.14c10.61-.48,20.45,2.6,26.63,7.53l-6.66,9.36c-5.31-2.99-12.25-4.92-19.68-4.25-11,.39-19.3,9.45-19.3,21.8s7.43,19.97,19.59,21.61c6.66.87,12.25-.39,15.73-2.99v-24.89h12.35Z"/>
  <path class="st0" d="M301.71,48.1h-9.36v23.15h-12.83v-35.41h24.7c6.37,0,10.42-4.15,10.42-9.94s-4.05-9.84-10.42-9.84h-24.7V3.71h24.99c15.05,0,23.44,9.84,23.44,22.19,0,9.07-4.44,16.79-12.83,20.26l14.47,25.08h-14.47l-13.41-23.15Z"/>
  <path class="st0" d="M396.46,71.25h-14.57l-16.69-48.24-16.69,48.24h-14.57L358.64,3.71h13.12l24.7,67.54Z"/>
  <rect class="st1" x="402.73" y="3.71" width="44.29" height="12.35"/>
  <polygon class="st0" points="402.73 31.4 440.55 31.4 440.55 43.66 415.56 43.66 415.56 71.25 402.73 71.25 402.73 31.4"/>
  <rect class="st2" x="455.21" y="3.71" width="44.29" height="12.35"/>
  <polygon class="st0" points="455.21 31.4 493.04 31.4 493.04 43.66 468.05 43.66 468.05 71.25 455.21 71.25 455.21 31.4"/>
</svg>